<svg xmlns="http://www.w3.org/2000/svg" width="480pt" height="290pt" viewBox="0 0 480 290" version="1.1" xmlns:xlink="http://www.w3.org/1999/xlink">
  <g id="surface2" transform="matrix(1.8358845432607191,0,0,1.8358845432607191,-201.94817492583329,-58.28318430193972)">
    <path style="stroke:none;fill-rule:evenodd;fill:rgb(100.000000%,100.000000%,100.000000%);fill-opacity:1" d="M 242.050781 189.949219 C 219.617188 189.382812 200.949219 181.632812 186.050781 166.699219 C 171.117188 151.800781 163.367188 133.132812 162.800781 110.699219 C 163.367188 88.265625 171.117188 69.601562 186.050781 54.699219 C 200.949219 39.765625 219.617188 32.015625 242.050781 31.449219 C 264.484375 32.015625 283.148438 39.765625 298.050781 54.699219 C 312.984375 69.601562 320.734375 88.265625 321.300781 110.699219 C 320.734375 133.132812 312.984375 151.800781 298.050781 166.699219 C 283.148438 181.632812 264.484375 189.382812 242.050781 189.949219 "/>
    <path style="stroke:none;fill-rule:evenodd;fill:rgb(100.000000%,100.000000%,100.000000%);fill-opacity:1" d="M 284.000000 54.050781 L 284.000000 47.601562 C 279.300781 44.464844 274.265625 41.882812 268.898438 39.851562 L 268.898438 45.500000 C 274.332031 47.765625 279.367188 50.617188 284.000000 54.050781 "/>
    <path style="stroke:none;fill-rule:evenodd;fill:rgb(100.000000%,100.000000%,100.000000%);fill-opacity:1" d="M 172.449219 99.398438 L 167.949219 94.898438 C 167.050781 99.101562 166.515625 103.433594 166.351562 107.898438 L 171.601562 107.898438 C 171.734375 105.035156 172.015625 102.199219 172.449219 99.398438 "/>
    <path style="stroke:none;fill-rule:evenodd;fill:rgb(100.000000%,100.000000%,100.000000%);fill-opacity:1" d="M 183.699219 71.250000 L 179.898438 67.449219 C 177.800781 70.449219 175.933594 73.582031 174.300781 76.851562 L 178.250000 80.800781 C 179.816406 77.464844 181.632812 74.285156 183.699219 71.250000 "/>
    <path style="stroke:none;fill-rule:evenodd;fill:rgb(100.000000%,100.000000%,100.000000%);fill-opacity:1" d="M 176.851562 83.898438 L 172.851562 79.898438 C 171.183594 83.566406 169.832031 87.367188 168.800781 91.300781 L 173.148438 95.699219 C 174.050781 91.601562 175.285156 87.667969 176.851562 83.898438 "/>
    <path style="stroke:none;fill-rule:evenodd;fill:rgb(100.000000%,100.000000%,100.000000%);fill-opacity:1" d="M 295.699219 65.050781 L 295.699219 57.250000 C 293.035156 54.582031 290.183594 52.117188 287.148438 49.851562 L 287.148438 56.550781 C 290.250000 59.148438 293.101562 61.984375 295.699219 65.050781 "/>
    <path style="stroke:none;fill-rule:evenodd;fill:rgb(100.000000%,100.000000%,100.000000%);fill-opacity:1" d="M 193.398438 59.750000 L 189.648438 56.000000 C 186.785156 58.734375 184.148438 61.683594 181.750000 64.851562 L 185.500000 68.601562 C 187.898438 65.433594 190.535156 62.484375 193.398438 59.750000 "/>
    <path style="stroke:none;fill-rule:evenodd;fill:rgb(100.000000%,100.000000%,100.000000%);fill-opacity:1" d="M 242.050781 40.199219 C 244.449219 40.234375 246.800781 40.351562 249.101562 40.550781 L 249.101562 35.300781 C 246.800781 35.066406 244.449219 34.949219 242.050781 34.949219 C 237.316406 34.949219 232.683594 35.382812 228.148438 36.250000 L 228.148438 41.601562 C 232.648438 40.699219 237.285156 40.234375 242.050781 40.199219 "/>
    <path style="stroke:none;fill-rule:evenodd;fill:rgb(100.000000%,100.000000%,100.000000%);fill-opacity:1" d="M 306.199219 81.500000 L 306.199219 70.398438 C 304.000000 66.933594 301.550781 63.667969 298.851562 60.601562 L 298.851562 68.949219 C 301.714844 72.882812 304.167969 77.066406 306.199219 81.500000 "/>
    <path style="stroke:none;fill-rule:evenodd;fill:rgb(100.000000%,100.000000%,100.000000%);fill-opacity:1" d="M 265.750000 44.300781 L 265.750000 38.750000 C 261.417969 37.316406 256.917969 36.285156 252.250000 35.648438 L 252.250000 40.949219 C 256.917969 41.648438 261.417969 42.765625 265.750000 44.300781 "/>
    <path style="stroke:none;fill-rule:evenodd;fill:rgb(100.000000%,100.000000%,100.000000%);fill-opacity:1" d="M 225.000000 42.300781 L 225.000000 36.898438 C 212.398438 39.898438 201.398438 45.550781 192.000000 53.851562 L 195.750000 57.601562 C 204.117188 50.265625 213.867188 45.167969 225.000000 42.300781 "/>
    <path style="stroke:none;fill-rule:evenodd;fill:rgb(100.000000%,100.000000%,100.000000%);fill-opacity:1" d="M 312.449219 107.898438 L 317.750000 107.898438 C 317.214844 96.300781 314.417969 85.648438 309.351562 75.949219 L 309.351562 89.699219 C 311.148438 95.500000 312.183594 101.566406 312.449219 107.898438 "/>
    <path style="stroke:none;fill-rule:evenodd;fill:rgb(100.000000%,100.000000%,100.000000%);fill-opacity:1" d="M 252.250000 180.449219 L 252.250000 185.750000 C 254.750000 185.417969 257.199219 184.964844 259.601562 184.398438 L 259.601562 179.000000 C 257.199219 179.601562 254.750000 180.082031 252.250000 180.449219 "/>
    <path style="stroke:none;fill-rule:evenodd;fill:rgb(100.000000%,100.000000%,100.000000%);fill-opacity:1" d="M 231.550781 180.449219 L 231.550781 185.750000 C 233.882812 186.082031 236.250000 186.300781 238.648438 186.398438 L 238.648438 181.148438 C 236.250000 181.015625 233.882812 180.785156 231.550781 180.449219 "/>
    <path style="stroke:none;fill-rule:evenodd;fill:rgb(100.000000%,100.000000%,100.000000%);fill-opacity:1" d="M 262.750000 178.101562 L 262.750000 183.601562 C 265.250000 182.898438 267.699219 182.066406 270.101562 181.101562 L 270.101562 175.398438 C 267.699219 176.433594 265.250000 177.332031 262.750000 178.101562 "/>
    <path style="stroke:none;fill-rule:evenodd;fill:rgb(100.000000%,100.000000%,100.000000%);fill-opacity:1" d="M 242.050781 181.199219 C 241.949219 181.199219 241.851562 181.199219 241.750000 181.199219 L 241.750000 186.449219 C 241.851562 186.449219 241.949219 186.449219 242.050781 186.449219 C 244.417969 186.449219 246.765625 186.351562 249.101562 186.148438 L 249.101562 180.851562 C 246.765625 181.082031 244.417969 181.199219 242.050781 181.199219 "/>
    <path style="stroke:none;fill-rule:evenodd;fill:rgb(100.000000%,100.000000%,100.000000%);fill-opacity:1" d="M 210.550781 173.800781 L 210.550781 179.648438 C 212.949219 180.750000 215.398438 181.714844 217.898438 182.550781 L 217.898438 177.000000 C 215.367188 176.066406 212.917969 175.000000 210.550781 173.800781 "/>
    <path style="stroke:none;fill-rule:evenodd;fill:rgb(100.000000%,100.000000%,100.000000%);fill-opacity:1" d="M 221.050781 178.050781 L 221.050781 183.550781 C 223.449219 184.214844 225.898438 184.785156 228.398438 185.250000 L 228.398438 179.898438 C 225.898438 179.398438 223.449219 178.785156 221.050781 178.050781 "/>
    <path style="stroke:none;fill-rule:evenodd;fill:rgb(100.000000%,100.000000%,100.000000%);fill-opacity:1" d="M 171.648438 114.148438 L 166.398438 114.148438 C 167.199219 128.250000 171.265625 140.882812 178.601562 152.050781 C 185.933594 163.183594 195.535156 171.851562 207.398438 178.050781 L 207.398438 172.101562 C 185.867188 159.433594 173.949219 140.117188 171.648438 114.148438 "/>
    <path style="stroke:none;fill-rule:evenodd;fill:rgb(100.000000%,100.000000%,100.000000%);fill-opacity:1" d="M 301.800781 148.199219 C 302.066406 148.933594 302.199219 149.734375 302.199219 150.601562 C 301.800781 154.832031 299.464844 157.148438 295.199219 157.550781 C 295.066406 157.550781 294.917969 157.550781 294.750000 157.550781 C 291.449219 161.285156 287.785156 164.617188 283.750000 167.550781 L 283.750000 173.949219 C 304.351562 160.050781 315.683594 140.117188 317.750000 114.148438 L 312.500000 114.148438 C 311.734375 126.750000 308.167969 138.101562 301.800781 148.199219 "/>
    <path style="stroke:none;fill-rule:evenodd;fill:rgb(100.000000%,100.000000%,100.000000%);fill-opacity:1" d="M 273.250000 173.949219 L 273.250000 179.750000 C 275.785156 178.617188 278.234375 177.351562 280.601562 175.949219 L 280.601562 169.750000 C 278.234375 171.285156 275.785156 172.683594 273.250000 173.949219 "/>
    <path style="stroke:none;fill-rule:evenodd;fill:rgb(14.117647%,21.568627%,32.156863%);fill-opacity:1" d="M 171.648438 107.851562 L 180.949219 107.851562 L 172.500000 99.398438 C 172.035156 102.167969 171.750000 104.984375 171.648438 107.851562 "/>
    <path style="stroke:none;fill-rule:evenodd;fill:rgb(14.117647%,21.568627%,32.156863%);fill-opacity:1" d="M 201.101562 108.101562 L 200.949219 107.949219 L 198.398438 112.550781 C 197.765625 113.582031 196.851562 114.117188 195.648438 114.148438 L 191.699219 114.148438 L 208.601562 131.050781 L 201.101562 108.101562 "/>
    <path style="stroke:none;fill-rule:evenodd;fill:rgb(14.117647%,21.568627%,32.156863%);fill-opacity:1" d="M 173.199219 95.699219 L 185.398438 107.898438 L 193.800781 107.898438 L 196.300781 103.351562 L 176.851562 83.898438 C 175.316406 87.667969 174.101562 91.601562 173.199219 95.699219 "/>
    <path style="stroke:none;fill-rule:evenodd;fill:rgb(14.117647%,21.568627%,32.156863%);fill-opacity:1" d="M 189.000000 142.550781 C 189.398438 138.316406 191.734375 135.984375 196.000000 135.550781 C 200.265625 135.984375 202.601562 138.316406 203.000000 142.550781 C 202.601562 146.816406 200.265625 149.148438 196.000000 149.550781 C 191.734375 149.148438 189.398438 146.816406 189.000000 142.550781 M 207.398438 172.101562 L 207.398438 134.300781 L 187.250000 114.148438 L 171.648438 114.148438 C 173.949219 140.117188 185.867188 159.433594 207.398438 172.101562 "/>
    <path style="stroke:none;fill-rule:evenodd;fill:rgb(14.117647%,21.568627%,32.156863%);fill-opacity:1" d="M 222.750000 64.101562 C 222.984375 66.433594 224.265625 67.714844 226.601562 67.949219 C 228.933594 67.714844 230.214844 66.433594 230.449219 64.101562 C 230.214844 61.765625 228.933594 60.484375 226.601562 60.250000 C 224.265625 60.484375 222.984375 61.765625 222.750000 64.101562 "/>
    <path style="stroke:none;fill-rule:evenodd;fill:rgb(14.117647%,21.568627%,32.156863%);fill-opacity:1" d="M 238.648438 181.148438 L 238.648438 104.949219 L 236.101562 102.449219 L 231.550781 131.398438 L 231.550781 180.449219 C 233.882812 180.816406 236.250000 181.050781 238.648438 181.148438 "/>
    <path style="stroke:none;fill-rule:evenodd;fill:rgb(14.117647%,21.568627%,32.156863%);fill-opacity:1" d="M 241.750000 181.199219 C 241.851562 181.234375 241.949219 181.250000 242.050781 181.250000 C 244.417969 181.214844 246.765625 181.101562 249.101562 180.898438 L 249.101562 100.101562 L 241.050781 71.199219 L 236.699219 98.601562 L 241.750000 103.648438 L 241.750000 181.199219 "/>
    <path style="stroke:none;fill-rule:evenodd;fill:rgb(14.117647%,21.568627%,32.156863%);fill-opacity:1" d="M 263.500000 80.949219 C 263.734375 83.285156 265.015625 84.566406 267.351562 84.800781 C 269.683594 84.566406 270.964844 83.285156 271.199219 80.949219 C 270.964844 78.617188 269.683594 77.332031 267.351562 77.101562 C 265.015625 77.332031 263.734375 78.617188 263.500000 80.949219 "/>
    <path style="stroke:none;fill-rule:evenodd;fill:rgb(14.117647%,21.568627%,32.156863%);fill-opacity:1" d="M 217.898438 176.949219 L 217.898438 159.601562 L 210.550781 137.101562 L 210.550781 173.800781 C 212.917969 175.000000 215.367188 176.050781 217.898438 176.949219 "/>
    <path style="stroke:none;fill-rule:evenodd;fill:rgb(14.117647%,21.568627%,32.156863%);fill-opacity:1" d="M 259.601562 179.050781 L 259.601562 123.250000 C 259.101562 123.515625 258.550781 123.648438 257.949219 123.648438 C 256.484375 123.515625 255.515625 122.750000 255.050781 121.351562 L 252.250000 111.351562 L 252.250000 180.500000 C 254.750000 180.132812 257.199219 179.648438 259.601562 179.050781 "/>
    <path style="stroke:none;fill-rule:evenodd;fill:rgb(14.117647%,21.568627%,32.156863%);fill-opacity:1" d="M 210.898438 117.949219 L 217.898438 139.351562 L 217.898438 124.949219 L 210.898438 117.949219 "/>
    <path style="stroke:none;fill-rule:evenodd;fill:rgb(14.117647%,21.568627%,32.156863%);fill-opacity:1" d="M 268.851562 112.601562 L 265.898438 107.500000 L 261.199219 121.000000 L 269.148438 113.050781 C 269.050781 112.917969 268.949219 112.765625 268.851562 112.601562 "/>
    <path style="stroke:none;fill-rule:evenodd;fill:rgb(14.117647%,21.568627%,32.156863%);fill-opacity:1" d="M 262.750000 178.101562 C 265.250000 177.332031 267.699219 176.433594 270.101562 175.398438 L 270.101562 131.750000 L 288.898438 114.148438 L 272.500000 114.148438 L 262.750000 123.898438 L 262.750000 178.101562 "/>
    <path style="stroke:none;fill-rule:evenodd;fill:rgb(14.117647%,21.568627%,32.156863%);fill-opacity:1" d="M 299.050781 150.601562 C 298.816406 148.265625 297.535156 146.984375 295.199219 146.750000 C 292.867188 146.984375 291.582031 148.265625 291.351562 150.601562 C 291.582031 152.933594 292.867188 154.214844 295.199219 154.449219 C 297.535156 154.214844 298.816406 152.933594 299.050781 150.601562 "/>
    <path style="stroke:none;fill-rule:evenodd;fill:rgb(14.117647%,21.568627%,32.156863%);fill-opacity:1" d="M 273.250000 173.949219 C 275.785156 172.683594 278.234375 171.285156 280.601562 169.750000 L 280.601562 142.500000 L 306.250000 118.449219 L 306.250000 114.148438 L 293.500000 114.148438 L 273.250000 133.148438 L 273.250000 173.949219 "/>
    <path style="stroke:none;fill-rule:evenodd;fill:rgb(14.117647%,21.568627%,32.156863%);fill-opacity:1" d="M 283.750000 143.851562 L 283.750000 167.550781 C 287.785156 164.617188 291.449219 161.285156 294.750000 157.550781 C 290.750000 156.949219 288.582031 154.632812 288.250000 150.601562 C 288.648438 146.332031 290.964844 144.000000 295.199219 143.601562 C 298.433594 143.800781 300.632812 145.332031 301.800781 148.199219 C 308.167969 138.101562 311.734375 126.750000 312.500000 114.148438 L 309.398438 114.148438 L 309.398438 119.800781 L 283.750000 143.851562 "/>
    <path style="stroke:none;fill-rule:evenodd;fill:rgb(14.117647%,21.568627%,32.156863%);fill-opacity:1" d="M 228.398438 179.851562 L 228.398438 151.250000 L 226.148438 165.601562 C 225.785156 167.132812 224.816406 168.015625 223.250000 168.250000 C 223.183594 168.250000 223.101562 168.250000 223.000000 168.250000 C 222.265625 168.250000 221.617188 168.015625 221.050781 167.550781 L 221.050781 178.000000 C 223.449219 178.765625 225.898438 179.382812 228.398438 179.851562 "/>
    <path style="stroke:none;fill-rule:evenodd;fill:rgb(14.117647%,21.568627%,32.156863%);fill-opacity:1" d="M 284.000000 54.050781 C 279.367188 50.582031 274.332031 47.734375 268.898438 45.500000 L 268.898438 74.101562 C 272.234375 75.101562 274.035156 77.382812 274.300781 80.949219 C 273.898438 85.183594 271.566406 87.500000 267.300781 87.898438 C 263.066406 87.500000 260.750000 85.183594 260.351562 80.949219 C 260.582031 77.382812 262.382812 75.117188 265.750000 74.148438 L 265.750000 44.300781 C 261.417969 42.734375 256.917969 41.617188 252.250000 40.949219 L 252.250000 87.898438 L 258.398438 109.949219 L 262.250000 98.898438 C 262.714844 97.667969 263.601562 96.964844 264.898438 96.800781 C 266.234375 96.734375 267.250000 97.250000 267.949219 98.351562 L 273.398438 107.851562 L 274.351562 107.851562 L 284.000000 98.199219 L 284.000000 54.050781 "/>
    <path style="stroke:none;fill-rule:evenodd;fill:rgb(14.117647%,21.568627%,32.156863%);fill-opacity:1" d="M 295.750000 65.050781 C 293.117188 61.984375 290.250000 59.148438 287.148438 56.550781 L 287.148438 99.500000 L 278.800781 107.898438 L 295.601562 107.898438 L 295.750000 107.750000 L 295.750000 65.050781 "/>
    <path style="stroke:none;fill-rule:evenodd;fill:rgb(14.117647%,21.568627%,32.156863%);fill-opacity:1" d="M 298.851562 69.000000 L 298.851562 107.898438 L 306.199219 107.898438 L 306.199219 81.550781 C 304.167969 77.082031 301.714844 72.898438 298.851562 69.000000 "/>
    <path style="stroke:none;fill-rule:evenodd;fill:rgb(14.117647%,21.568627%,32.156863%);fill-opacity:1" d="M 185.500000 68.648438 L 228.300781 111.449219 L 230.601562 96.949219 L 193.398438 59.750000 C 190.500000 62.484375 187.867188 65.449219 185.500000 68.648438 "/>
    <path style="stroke:none;fill-rule:evenodd;fill:rgb(14.117647%,21.568627%,32.156863%);fill-opacity:1" d="M 242.101562 40.250000 C 237.300781 40.250000 232.648438 40.714844 228.148438 41.648438 L 228.148438 57.300781 C 231.515625 58.265625 233.332031 60.535156 233.601562 64.101562 C 233.167969 68.367188 230.832031 70.699219 226.601562 71.101562 C 222.332031 70.699219 220.000000 68.367188 219.601562 64.101562 C 219.867188 60.535156 221.667969 58.265625 225.000000 57.300781 L 225.000000 42.351562 C 213.898438 45.183594 204.148438 50.285156 195.750000 57.648438 L 231.199219 93.101562 L 237.101562 55.949219 C 237.433594 54.382812 238.398438 53.500000 240.000000 53.300781 C 241.632812 53.332031 242.714844 54.101562 243.250000 55.601562 L 249.101562 76.699219 L 249.101562 40.601562 C 246.800781 40.367188 244.464844 40.250000 242.101562 40.250000 "/>
    <path style="stroke:none;fill-rule:evenodd;fill:rgb(14.117647%,21.568627%,32.156863%);fill-opacity:1" d="M 178.250000 80.800781 L 197.898438 100.449219 L 199.000000 98.449219 C 199.699219 97.316406 200.714844 96.785156 202.050781 96.851562 C 203.382812 97.015625 204.285156 97.734375 204.750000 99.000000 L 208.750000 111.300781 L 221.050781 123.601562 L 221.050781 148.949219 L 221.949219 151.699219 L 227.750000 115.250000 L 183.699219 71.199219 C 181.632812 74.234375 179.816406 77.433594 178.250000 80.800781 "/>
    <path style="stroke:none;fill-rule:evenodd;fill:rgb(14.117647%,21.568627%,32.156863%);fill-opacity:1" d="M 199.851562 142.601562 C 199.617188 140.265625 198.332031 138.984375 196.000000 138.750000 C 193.667969 138.984375 192.382812 140.265625 192.148438 142.601562 C 192.382812 144.933594 193.667969 146.214844 196.000000 146.449219 C 198.332031 146.214844 199.617188 144.933594 199.851562 142.601562 "/>
    <path style="stroke:none;fill-rule:evenodd;fill:rgb(14.117647%,21.568627%,32.156863%);fill-opacity:1" d="M 309.351562 107.898438 L 312.449219 107.898438 C 312.214844 101.566406 311.183594 95.500000 309.351562 89.699219 L 309.351562 107.898438 "/>
    <path style="stroke:none;fill-rule:evenodd;fill:rgb(100.000000%,100.000000%,100.000000%);fill-opacity:1" d="M 337.750000 117.300781 C 333.917969 116.964844 331.816406 114.882812 331.449219 111.050781 C 331.816406 107.214844 333.917969 105.117188 337.750000 104.750000 C 341.550781 105.117188 343.632812 107.214844 344.000000 111.050781 C 343.632812 114.851562 341.550781 116.933594 337.750000 117.300781 M 145.199219 117.300781 C 141.367188 116.964844 139.265625 114.882812 138.898438 111.050781 C 139.265625 107.214844 141.367188 105.117188 145.199219 104.750000 C 149.000000 105.117188 151.082031 107.214844 151.449219 111.050781 C 151.082031 114.851562 149.000000 116.933594 145.199219 117.300781 M 337.750000 98.449219 C 331.449219 98.882812 327.382812 102.035156 325.550781 107.898438 L 273.398438 107.898438 L 267.898438 98.398438 C 267.199219 97.265625 266.199219 96.734375 264.898438 96.800781 C 263.601562 97.000000 262.699219 97.699219 262.199219 98.898438 L 258.398438 109.949219 L 252.250000 87.949219 L 249.101562 76.699219 L 243.199219 55.601562 C 242.667969 54.101562 241.601562 53.332031 240.000000 53.300781 C 238.398438 53.500000 237.417969 54.382812 237.050781 55.949219 L 231.199219 93.101562 L 230.601562 96.949219 L 228.300781 111.449219 L 227.699219 115.250000 L 221.898438 151.750000 L 221.000000 148.949219 L 217.851562 139.351562 L 210.898438 117.949219 L 208.750000 111.351562 L 204.699219 99.050781 C 204.234375 97.785156 203.332031 97.050781 202.000000 96.851562 C 200.667969 96.785156 199.648438 97.332031 198.949219 98.500000 L 197.851562 100.449219 L 196.250000 103.351562 L 193.750000 107.898438 L 157.351562 107.898438 C 155.515625 102.035156 151.464844 98.882812 145.199219 98.449219 C 137.535156 99.183594 133.332031 103.382812 132.601562 111.050781 C 133.332031 118.683594 137.535156 122.867188 145.199219 123.601562 C 151.464844 123.167969 155.515625 120.035156 157.351562 114.199219 L 195.601562 114.199219 C 196.800781 114.132812 197.714844 113.582031 198.351562 112.550781 L 200.898438 107.949219 L 200.949219 107.851562 L 201.050781 108.101562 L 208.550781 131.050781 L 210.500000 137.101562 L 217.851562 159.601562 L 220.000000 166.101562 C 220.199219 166.699219 220.535156 167.199219 221.000000 167.601562 C 221.566406 168.035156 222.234375 168.265625 223.000000 168.300781 C 223.066406 168.300781 223.148438 168.285156 223.250000 168.250000 C 224.816406 168.050781 225.765625 167.183594 226.101562 165.648438 L 228.351562 151.250000 L 231.500000 131.351562 L 236.101562 102.449219 L 236.699219 98.601562 L 241.000000 71.199219 L 249.101562 100.101562 L 252.250000 111.351562 L 255.000000 121.351562 C 255.500000 122.750000 256.484375 123.515625 257.949219 123.648438 C 258.550781 123.648438 259.101562 123.500000 259.601562 123.199219 C 260.265625 122.832031 260.734375 122.265625 261.000000 121.500000 L 261.199219 121.000000 L 265.898438 107.500000 L 268.851562 112.601562 C 268.949219 112.765625 269.050781 112.917969 269.148438 113.050781 C 269.785156 113.785156 270.582031 114.167969 271.550781 114.199219 L 325.550781 114.199219 C 327.382812 120.035156 331.449219 123.167969 337.750000 123.601562 C 345.382812 122.867188 349.566406 118.683594 350.300781 111.050781 C 349.566406 103.382812 345.382812 99.183594 337.750000 98.449219 "/>
  </g>
  <g id="surface4">
  </g>
</svg>